<svg width="300" height="300" viewBox="0 0 300 300" fill="none" xmlns="http://www.w3.org/2000/svg">
<path d="M272.709 104.776C272.568 104.123 272.388 103.471 272.246 102.818C272.034 101.959 271.825 101.066 271.577 100.207C269.914 93.9893 267.791 87.9088 265.243 82.0688C262.059 82.5498 258.874 83.1338 255.76 83.8552C252.293 84.611 248.86 85.5385 245.463 86.5691C232.159 90.6227 219.735 96.5657 208.522 104.089C208.203 104.329 207.853 104.536 207.535 104.776C202.33 108.314 197.415 112.196 192.776 116.422C178.586 129.27 167.196 144.969 159.624 162.626C156.828 169.016 154.56 175.646 152.865 182.482C151.273 188.769 150.137 195.261 149.504 201.857C149.115 205.979 148.902 210.17 148.902 214.396C148.902 226.007 150.424 237.275 153.29 248.027C154.737 253.455 156.506 258.745 158.633 263.864C158.952 264.688 159.302 265.513 159.659 266.303C161.888 271.525 164.468 276.54 167.373 281.384C170.912 287.361 174.91 292.995 179.333 298.32H205.203C196.141 290.075 188.395 280.422 182.344 269.773C180.961 267.265 179.616 264.723 178.417 262.112C184.538 260.291 190.483 258.058 196.215 255.447C234.706 238.065 263.58 203.884 272.816 162.626C274.903 153.385 276 143.801 276 133.976C276 123.945 274.868 114.189 272.709 104.776ZM180.388 162.626C185.77 152.32 192.67 142.873 200.875 134.629C205.797 129.647 211.208 125.079 217.014 121.025V120.991C226.993 114.017 238.171 108.486 250.169 104.776H250.771C245.286 120.681 236.334 135.041 224.76 146.996C219.275 152.664 213.189 157.817 206.608 162.317C206.466 162.42 206.289 162.523 206.148 162.626C196.346 169.291 185.483 174.547 173.806 178.085C175.614 172.726 177.843 167.573 180.388 162.626ZM252.293 162.626C246.56 184.268 234.53 203.437 218.253 218.175C208.097 227.347 196.279 234.836 183.293 240.126C179.542 241.672 175.72 243.012 171.757 244.145C169.139 234.664 167.759 224.702 167.759 214.396C167.759 209.209 168.113 204.09 168.82 199.074C182.054 196.223 194.545 191.551 206.045 185.333H206.084C213.515 181.28 220.521 176.642 226.996 171.386C230.428 168.604 233.716 165.684 236.865 162.626C244.048 155.618 250.417 147.82 255.831 139.404C255.477 147.408 254.239 155.172 252.293 162.626Z" fill="#F25C84" fill-opacity="0.07"/>
<path d="M199.707 91.0693C212.481 84.9888 224.123 77.0533 234.281 67.6063C239.165 63.0717 243.729 58.1593 247.905 52.972C243.839 47.716 239.306 42.7692 234.458 38.166C209.579 14.5656 175.543 0 138 0C100.669 0 66.7707 14.4282 41.9307 37.8224C38.0031 41.4982 34.3231 45.4144 30.8554 49.5367V49.5711C30.1866 50.3269 29.5851 51.0826 28.98 51.8384C32.7343 56.6478 36.8389 61.2167 41.262 65.5108C41.4389 65.6482 41.5804 65.82 41.7574 65.9917C66.7035 89.9356 101.027 104.776 138.888 104.776C153.36 104.776 167.337 102.612 180.465 98.5925C187.114 96.5657 193.554 94.0236 199.707 91.0693ZM137.434 18.894C170.271 18.894 199.994 31.845 221.472 52.8003C211.352 62.4877 199.431 70.4232 186.265 76.0571C161.318 51.9758 126.925 37.1354 88.9958 37.1354C83.1573 37.1354 77.4215 37.4789 71.7635 38.166C90.5492 26.0051 113.156 18.894 137.434 18.894ZM138.318 85.882C109.232 85.882 82.623 75.7479 62.0292 58.8807C70.518 57.0257 79.3323 56.0294 88.3872 56.0294C117.438 56.0294 144.047 66.1635 164.68 82.9964C156.223 84.8858 147.377 85.882 138.318 85.882Z" fill="#F25C84" fill-opacity="0.07"/>
<path d="M127.385 182.86C125.686 175.887 123.386 169.119 120.591 162.626C118.68 158.298 116.592 154.073 114.292 149.985C114.257 149.95 114.257 149.916 114.222 149.881C113.408 148.713 112.696 147.511 112.063 146.24C112.063 146.206 112.028 146.137 111.992 146.103C102.014 129.785 88.5288 115.666 72.6057 104.776C59.8354 96.0163 45.4657 89.3518 30.0026 85.2295C26.9631 84.405 23.8846 83.6836 20.7708 83.0996V83.0653C18.4 82.6187 15.9903 82.2065 13.5523 81.8629C12.7031 81.7255 11.8538 81.6225 11.0046 81.5194C10.4385 82.7561 9.90769 83.9928 9.41231 85.2639V85.2982C7.56877 89.9015 5.94462 94.5735 4.63185 99.4172C4.59646 99.589 4.56108 99.7264 4.52923 99.8638C4.06923 101.478 3.68 103.127 3.28723 104.776C1.13231 114.189 0 123.945 0 133.976C0 143.801 1.09692 153.385 3.18462 162.626C14.0123 210.926 51.6615 249.47 100.209 262.868C96.2073 271.25 91.1826 279.048 85.3477 286.159C81.7739 290.488 77.9134 294.541 73.7734 298.32H100.843C104.558 293.82 108.026 289.045 111.14 284.064C114.604 278.601 117.65 272.83 120.269 266.853C122.848 260.978 125.01 254.864 126.705 248.577C129.681 237.653 131.234 226.213 131.234 214.396C131.234 210.205 131.022 206.083 130.633 201.995C130.038 195.468 128.938 189.078 127.385 182.86ZM28.7677 104.776C59.2339 114.223 84.3569 135.282 98.5816 162.626C101.271 167.814 103.567 173.241 105.443 178.875C92.7749 175.337 80.9919 169.806 70.4473 162.626C49.818 148.645 34.0011 128.411 25.8591 104.776C25.7565 104.467 25.6468 104.158 25.576 103.814C26.6446 104.124 27.7062 104.433 28.7677 104.776ZM106.932 245.211C65.6385 234.561 33.2262 202.854 22.5754 162.626C20.24 153.66 18.9308 144.213 18.8954 134.526C24.9462 144.832 32.3805 154.279 40.9046 162.626C59.4816 180.799 83.4051 193.853 110.188 199.35C110.86 204.296 111.214 209.312 111.214 214.396C111.214 225.08 109.728 235.42 106.932 245.211Z" fill="#F25C84" fill-opacity="0.07"/>
</svg>
